# xmcd
# Track frame offsets:
# 150
# 15830
# 31647
# 44152
# 59145
# 75900
# 93002
# 108495
# 122952
# 142085
# 156602
# 174982
# 191975
#
# Disc length: 2791 seconds
# Revision: 0
# Processed by: cddbd v1.4PL0 Copyright (c) Steve Scherf et al.
# Submitted via: VisiTrax 2.9.5.180 - For more info visit www.synapsa.com
#
DISCID=ae0ae50d
DTITLE=Country Island - Listen To My Heart
DYEAR=1900
DGENRE=
TTITLE0=Between Me And You
TTITLE1=Suspicious Mind
TTITLE2=Storm Of Love
TTITLE3=Take Another Run
TTITLE4=When I Listen To MyHeart
TTITLE5=Fast As You
TTITLE6=An American Dream
TTITLE7=You Got It
TTITLE8=My Love
TTITLE9=Give Me A Call
TTITLE10=A Thosand Miles From Nowhere
TTITLE11=Do You Love Me
TTITLE12=Still Hold On
EXTD=Danish Country Band\nFirst CD
EXTT0=
EXTT1=
EXTT2=
EXTT3=
EXTT4=
EXTT5=
EXTT6=
EXTT7=
EXTT8=
EXTT9=
EXTT10=
EXTT11=
EXTT12=
PLAYORDER=
